<svg width="24" height="24" viewBox="0 0 24 24" fill="none" xmlns="http://www.w3.org/2000/svg">
<path d="M17.7703 10.32L16.5703 9.82001L18.0003 9.06001C18.8781 8.59588 19.5357 7.80203 19.8282 6.85309C20.1208 5.90416 20.0244 4.87787 19.5603 4.00001C19.0961 3.12214 18.3023 2.4646 17.3534 2.17205C16.4044 1.87949 15.3781 1.97588 14.5003 2.44001L6.00027 6.94001C5.37549 7.26644 4.85568 7.7628 4.50078 8.37186C4.14587 8.98092 3.97032 9.67787 3.99436 10.3824C4.0184 11.0869 4.24106 11.7703 4.63666 12.3537C5.03225 12.9372 5.58469 13.3969 6.23027 13.68L7.43027 14.17L6.00027 14.93C5.14959 15.4097 4.51957 16.2022 4.24422 17.1392C3.96886 18.0762 4.06988 19.0836 4.52579 19.9472C4.98171 20.8109 5.75655 21.4626 6.68553 21.7638C7.61451 22.0649 8.62435 21.9918 9.50027 21.56L18.0003 17.06C18.625 16.7336 19.1449 16.2372 19.4998 15.6282C19.8547 15.0191 20.0302 14.3221 20.0062 13.6176C19.9821 12.9131 19.7595 12.2298 19.3639 11.6463C18.9683 11.0629 18.4158 10.6031 17.7703 10.32Z" fill="#FF0000"/>
<path d="M10 14.6496L15 11.9996L10 9.34961V14.6496Z" fill="white"/>
</svg>
