<svg width="24" height="24" viewBox="0 0 24 24" fill="none" xmlns="http://www.w3.org/2000/svg">
<path d="M14.9709 16.95L10.0009 13.87V7H12.0009V12.76L16.0309 15.25L14.9709 16.95ZM22.0009 12C22.0009 17.51 17.5109 22 12.0009 22C6.49094 22 2.00094 17.51 2.00094 12H3.00094C3.00094 16.96 7.04094 21 12.0009 21C16.9609 21 21.0009 16.96 21.0009 12C21.0009 7.04 16.9609 3 12.0009 3C8.81094 3 5.92094 4.64 4.28094 7.38C4.17094 7.56 4.06094 7.75 3.97094 7.94L3.94094 8H8.00094V9H1.96094V3H2.96094V7.74C3.00094 7.65 3.03094 7.57 3.07094 7.49C3.18094 7.27 3.30094 7.07 3.42094 6.86C5.22094 3.86 8.51094 2 12.0009 2C17.5109 2 22.0009 6.49 22.0009 12Z" fill="white"/>
</svg>
