<svg width="24" height="24" viewBox="0 0 24 24" fill="none" xmlns="http://www.w3.org/2000/svg">
<path d="M11.13 1.21C11.61 0.93 12.39 0.93 12.87 1.21L20.88 5.85C21.36 6.13 21.75 6.82 21.75 7.38V16.62C21.75 17.18 21.36 17.87 20.88 18.15L12.87 22.79C12.39 23.07 11.61 23.07 11.13 22.79L3.12 18.15C2.64 17.87 2.25 17.18 2.25 16.62V7.38C2.25 6.82 2.64 6.13 3.12 5.85L11.13 1.21Z" fill="#FF0000"/>
<path d="M12.71 18.9803L17.61 16.1503C18.02 15.9103 18.25 15.3803 18.25 14.9103V9.24031C18.25 8.77031 18.02 8.24031 17.61 8.00031L12.71 5.18031C12.3 4.95031 11.69 4.95031 11.29 5.18031L6.39 8.00031C5.99 8.23031 5.75 8.77031 5.75 9.24031V14.9103C5.75 15.3803 5.99 15.9103 6.39 16.1503L11.29 18.9803C11.49 19.1003 11.75 19.1603 12 19.1603C12.26 19.1503 12.51 19.0903 12.71 18.9803Z" fill="white"/>
<path d="M12.3209 5.73016L17.2109 8.56016C17.3709 8.65016 17.6209 8.87016 17.6209 9.23016V14.9002C17.6209 15.2702 17.3709 15.4402 17.2109 15.5402L12.3209 18.3702C12.1609 18.4602 11.8409 18.4602 11.6809 18.3702L6.79086 15.5402C6.63086 15.4502 6.38086 15.2002 6.38086 14.9002V9.24016C6.40086 8.87016 6.63086 8.66016 6.79086 8.56016L11.6809 5.73016C11.7609 5.68016 11.8809 5.66016 12.0009 5.66016C12.1209 5.66016 12.2409 5.68016 12.3209 5.73016Z" fill="#FF0000"/>
<path d="M9.88086 15.25L15.5009 12L9.88086 8.75V15.25Z" fill="white"/>
</svg>
