<svg width="24" height="24" viewBox="0 0 24 24" fill="none" xmlns="http://www.w3.org/2000/svg">
<path d="M3 3V21H21V3H3ZM4.99 20C5.38 17.38 7.37 14.9 12 14.9C16.63 14.9 18.62 17.38 19.01 20H4.99ZM9 10C9 8.35 10.35 7 12 7C13.65 7 15 8.35 15 10C15 11.65 13.65 13 12 13C10.35 13 9 11.65 9 10ZM12.72 13.93C14.58 13.59 16 11.96 16 10C16 7.79 14.21 6 12 6C9.79 6 8 7.79 8 10C8 11.96 9.42 13.59 11.28 13.93C6.86 14.18 4.44 16.73 4 19.93V4H20V19.93C19.56 16.73 17.14 14.18 12.72 13.93Z" fill="white"/>
</svg>
