<svg width="24" height="24" viewBox="0 0 24 24" fill="none" xmlns="http://www.w3.org/2000/svg">
<path d="M22.54 7.60028C22.54 7.60028 22.34 6.10028 21.68 5.43028C20.85 4.56028 19.93 4.55028 19.5 4.50028C16.46 4.28028 11.9 4.30028 11.9 4.30028C11.9 4.30028 7.34 4.28028 4.3 4.50028C3.87 4.55028 2.95 4.56028 2.12 5.43028C1.47 6.10028 1.26 7.61028 1.26 7.61028C1.26 7.61028 1.04 9.40028 1 11.1803V12.8403C1.04 14.6203 1.26 16.3903 1.26 16.3903C1.26 16.3903 1.46 17.8903 2.12 18.5703C2.95 19.4403 4.02 19.4103 4.52 19.5103C6.22 19.6603 11.72 19.7103 11.9 19.7103C11.9 19.7103 16.47 19.7103 19.5 19.4903C19.93 19.4403 20.85 19.4303 21.68 18.5603C22.33 17.8903 22.54 16.3803 22.54 16.3803C22.54 16.3803 22.76 14.6103 22.78 12.8303V11.1703C22.76 9.39028 22.54 7.62028 22.54 7.62028V7.60028Z" fill="#FF0000"/>
<path d="M9.67969 8.90039V15.0804L15.5197 11.9804" fill="#FAFAFA"/>
<path d="M9.67969 8.87988L14.8097 12.3599L15.5397 11.9799" fill="black" fill-opacity="0.12"/>
<path d="M22.54 7.60028C22.54 7.60028 22.34 6.10028 21.68 5.43028C20.85 4.56028 19.93 4.55028 19.5 4.50028C16.46 4.28028 11.9 4.30028 11.9 4.30028C11.9 4.30028 7.34 4.28028 4.3 4.50028C3.87 4.55028 2.95 4.56028 2.12 5.43028C1.47 6.10028 1.26 7.61028 1.26 7.61028C1.26 7.61028 1.04 9.40028 1 11.1803V11.2803C1.04 9.52028 1.26 7.74028 1.26 7.74028C1.26 7.74028 1.46 6.24028 2.12 5.57028C2.95 4.69028 3.87 4.69028 4.3 4.64028C7.34 4.42028 11.9 4.44028 11.9 4.44028C11.9 4.44028 16.46 4.42028 19.5 4.64028C19.93 4.69028 20.85 4.69028 21.68 5.57028C22.33 6.23028 22.54 7.74028 22.54 7.74028C22.54 7.74028 22.76 9.52028 22.77 11.2903V11.1903C22.77 9.39028 22.54 7.63028 22.54 7.63028V7.60028Z" fill="white" fill-opacity="0.2"/>
<path d="M22.54 16.4C22.54 16.4 22.34 17.9 21.68 18.57C20.85 19.44 19.93 19.45 19.5 19.5C16.46 19.72 11.9 19.7 11.9 19.7C11.9 19.7 7.34 19.72 4.3 19.5C3.87 19.45 2.95 19.44 2.12 18.57C1.47 17.9 1.26 16.39 1.26 16.39C1.26 16.39 1.04 14.59 1 12.82V12.72C1.04 14.48 1.26 16.26 1.26 16.26C1.26 16.26 1.46 17.76 2.12 18.43C2.95 19.31 3.87 19.31 4.3 19.36C7.34 19.58 11.9 19.56 11.9 19.56C11.9 19.56 16.46 19.58 19.5 19.36C19.93 19.31 20.85 19.31 21.68 18.43C22.33 17.77 22.54 16.26 22.54 16.26C22.54 16.26 22.76 14.48 22.77 12.71V12.81C22.77 14.61 22.54 16.37 22.54 16.37V16.4Z" fill="#3E2723" fill-opacity="0.2"/>
<path d="M9.67969 15.0805V15.1805L15.5197 12.1005V11.9805" fill="white" fill-opacity="0.2"/>
<path d="M9.67969 8.90051V8.77051L15.5197 11.8705V11.9705" fill="#3E2723" fill-opacity="0.2"/>
</svg>
