<svg width="24" height="24" viewBox="0 0 24 24" fill="none" xmlns="http://www.w3.org/2000/svg">
<path d="M10 19.9999H14C14 21.0999 13.1 21.9999 12 21.9999C10.9 21.9999 10 21.0999 10 19.9999ZM20 17.3499V18.9999H4V17.3499L6 15.4699V10.3199C6 7.39991 7.56 5.09992 10 4.33992V3.95991C10 2.53991 11.49 1.45991 12.99 2.19991C13.64 2.51991 14 3.22991 14 3.95991V4.34991C16.44 5.09991 18 7.40991 18 10.3299V15.4799L20 17.3499ZM19 17.7699L17 15.8899V10.4199C17 7.94991 15.81 6.05992 13.87 5.31992C12.61 4.78992 11.23 4.81991 10.03 5.34991C8.15 6.10991 7 7.98991 7 10.4199V15.8899L5 17.7699V17.9999H19V17.7699Z" fill="white"/>
</svg>
