<svg width="26" height="26" viewBox="0 0 26 26" fill="none" xmlns="http://www.w3.org/2000/svg">
<path d="M12.2784 9.38889C13.0729 9.38889 13.7229 8.73889 13.7229 7.94444C13.7229 7.15 13.0729 6.5 12.2784 6.5C11.484 6.5 10.834 7.15 10.834 7.94444C10.834 8.73889 11.484 9.38889 12.2784 9.38889ZM12.2784 10.8333C11.484 10.8333 10.834 11.4833 10.834 12.2778C10.834 13.0722 11.484 13.7222 12.2784 13.7222C13.0729 13.7222 13.7229 13.0722 13.7229 12.2778C13.7229 11.4833 13.0729 10.8333 12.2784 10.8333ZM12.2784 15.1667C11.484 15.1667 10.834 15.8167 10.834 16.6111C10.834 17.4056 11.484 18.0556 12.2784 18.0556C13.0729 18.0556 13.7229 17.4056 13.7229 16.6111C13.7229 15.8167 13.0729 15.1667 12.2784 15.1667Z" fill="white"/>
</svg>
