<svg width="24" height="24" viewBox="0 0 24 24" fill="none" xmlns="http://www.w3.org/2000/svg">
<path d="M21.39 13.1905C21.39 13.1105 21.39 13.0405 21.39 12.9705C21.38 12.1105 20.89 7.97047 20.61 7.23047C20.29 6.38047 19.85 5.73047 19.3 5.32047C18.4 4.65047 17.64 4.50047 16.7 4.48047H16.68C16.28 4.48047 13.67 4.80047 11.48 5.10047C9.27998 5.40047 6.52998 5.80047 5.87998 6.04047C4.97998 6.37047 4.25998 6.81047 3.68998 7.37047C2.63998 8.41047 2.50998 9.48047 2.64998 10.8805C2.74998 11.9705 3.33998 16.2505 3.66998 17.2305C4.11998 18.5505 4.99998 19.3505 6.13998 19.4705C6.41998 19.5005 6.68998 19.5205 6.95998 19.5205C7.95998 19.5205 8.75998 19.3105 9.67998 19.0605C11.13 18.6705 12.93 18.1905 16.65 18.1905H16.74H16.76C17.67 18.1905 19.9 17.9905 20.92 16.1205C21.44 15.1205 21.41 13.9105 21.39 13.1905Z" fill="#FF0000"/>
<path d="M21.9898 13.26C21.9898 13.18 21.9898 13.1 21.9798 13.02C21.9698 12.1 21.4398 7.7 21.1498 6.91C20.8098 6 20.3398 5.32 19.7498 4.88C18.8098 4.17 17.9898 4.02 16.9998 4H16.9798C16.5498 4 13.7698 4.34 11.4398 4.66C9.10976 4.98 6.18976 5.41 5.48976 5.66C4.52976 6.01 3.75976 6.48 3.15976 7.08C2.03976 8.18 1.90976 9.33 2.04976 10.82C2.15976 11.98 2.77976 16.53 3.12976 17.57C3.60976 18.98 4.53976 19.82 5.75976 19.95C6.05976 19.98 6.33977 20 6.62977 20C7.69977 20 8.53977 19.77 9.51977 19.51C11.0598 19.1 12.9798 18.58 16.9298 18.58H17.0298H17.0498C18.0198 18.58 20.3898 18.37 21.4698 16.38C22.0398 15.32 22.0098 14.03 21.9898 13.26ZM20.5898 15.91C19.7698 17.42 17.8398 17.59 17.0298 17.59H16.9298C12.8398 17.59 10.8598 18.12 9.25977 18.55C8.30977 18.8 7.55976 19 6.62977 19C6.37977 19 6.12976 18.99 5.86976 18.96C4.82976 18.85 4.32976 17.97 4.07976 17.25C3.77976 16.37 3.16976 12.04 3.03976 10.72C2.89976 9.25 3.09976 8.54 3.85976 7.79C4.35976 7.29 5.00976 6.9 5.82976 6.6C5.99976 6.54 6.92976 6.28 11.5698 5.65C14.1998 5.29 16.6398 5.01 16.9898 5C17.8198 5.02 18.4198 5.13 19.1598 5.69C19.5898 6.01 19.9498 6.55 20.2198 7.27C20.4398 7.85 20.9798 12.05 20.9898 13.04L20.9998 13.29C21.0098 13.96 21.0398 15.08 20.5898 15.91Z" fill="black"/>
<path d="M11.5909 14.7598C11.1109 15.1198 10.7909 15.2098 10.5809 15.2098C10.4209 15.2098 10.3309 15.1598 10.2809 15.1298C9.94091 14.9498 9.86091 14.5198 9.78091 13.9298L9.77091 13.8298C9.73091 13.5198 9.51091 11.7298 9.39091 10.6698L9.30091 9.93984C9.26091 9.65984 9.20091 9.18984 9.54091 8.93984C9.86091 8.70984 10.2909 8.84984 10.5009 8.90984C11.0309 9.07984 14.1009 10.1398 15.0909 10.6398C15.3009 10.7298 15.7609 10.9198 15.7709 11.4698C15.7809 11.9698 15.3909 12.2098 15.2409 12.2898L11.5909 14.7598Z" fill="black"/>
<path d="M10.3008 9.88965C10.3008 9.88965 10.8008 13.9696 10.8108 14.0796C10.8708 14.0396 14.6008 11.4996 14.6008 11.4996C13.7108 11.0696 11.0708 10.1396 10.3008 9.88965Z" fill="white"/>
</svg>
