<svg width="24" height="24" viewBox="0 0 24 24" fill="none" xmlns="http://www.w3.org/2000/svg">
<path d="M19 3.87V13.64C19 17.7 15.86 21 12 21C8.14 21 5 17.7 5 13.63V13.5C5 12.44 5.22 11.37 5.62 10.41C6.12 9.22 6.91 8.2 7.89 7.44C8.74 6.78 9.72 6.3 10.76 5.79C11.15 5.6 11.53 5.41 11.91 5.21C12.27 5.02 12.63 4.83 12.99 4.65V7.87L14.54 6.83L19 3.87ZM20 2L14 6V3C13.15 3.44 12.3 3.88 11.45 4.33C10.04 5.07 8.55 5.67 7.28 6.65C6.15 7.52 5.26 8.7 4.7 10.02C4.24 11.11 4 12.31 4 13.5V13.64C4 18.26 7.58 22 12 22C16.42 22 20 18.26 20 13.64V2ZM9.45 12.89L14 10V15.7C14 17.52 12.66 19 11 19C9.34 19 8 17.53 8 15.7C8 14.51 8.58 13.47 9.45 12.89Z" fill="white"/>
</svg>
