<svg width="24" height="24" viewBox="0 0 24 24" fill="none" xmlns="http://www.w3.org/2000/svg">
<path d="M11.9998 9.5C13.3798 9.5 14.4998 10.62 14.4998 12C14.4998 13.38 13.3798 14.5 11.9998 14.5C10.6198 14.5 9.49984 13.38 9.49984 12C9.49984 10.62 10.6198 9.5 11.9998 9.5ZM11.9998 8.5C10.0698 8.5 8.49984 10.07 8.49984 12C8.49984 13.93 10.0698 15.5 11.9998 15.5C13.9298 15.5 15.4998 13.93 15.4998 12C15.4998 10.07 13.9298 8.5 11.9998 8.5ZM13.2198 3L13.7698 5.2L13.8998 5.71L14.3998 5.89C15.0098 6.12 15.5898 6.45 16.1198 6.87L16.5198 7.19L17.0198 7.05L19.1898 6.43L20.4098 8.54L18.7798 10.13L18.4098 10.49L18.4898 11C18.5398 11.32 18.5698 11.64 18.5698 11.98C18.5698 12.32 18.5398 12.64 18.4898 12.96L18.4098 13.47L18.7798 13.83L20.4098 15.42L19.1898 17.53L17.0198 16.91L16.5198 16.77L16.1198 17.09C15.5898 17.52 15.0098 17.85 14.3998 18.07L13.8998 18.25L13.7698 18.76L13.2198 21H10.7798L10.2298 18.8L10.0998 18.29L9.59984 18.11C8.99984 17.88 8.41984 17.55 7.87984 17.12L7.47984 16.8L6.97984 16.94L4.80984 17.56L3.59984 15.44L5.22984 13.85L5.59984 13.49L5.51984 12.98C5.46984 12.66 5.43984 12.33 5.43984 12C5.43984 11.67 5.46984 11.34 5.51984 11.02L5.59984 10.51L5.22984 10.15L3.59984 8.56L4.81984 6.45L6.98984 7.07L7.48984 7.21L7.88984 6.89C8.41984 6.45 8.99984 6.12 9.60984 5.9L10.1098 5.72L10.2398 5.21L10.7798 3H13.2198ZM13.9998 2H9.99984L9.25984 4.96C8.52984 5.23 7.85984 5.62 7.25984 6.1L4.33984 5.27L2.33984 8.73L4.52984 10.86C4.46984 11.23 4.43984 11.61 4.43984 12C4.43984 12.39 4.46984 12.77 4.52984 13.14L2.33984 15.27L4.33984 18.73L7.25984 17.9C7.85984 18.38 8.52984 18.77 9.25984 19.04L9.99984 22H13.9998L14.7398 19.04C15.4698 18.77 16.1398 18.38 16.7398 17.9L19.6598 18.73L21.6598 15.27L19.4698 13.14C19.5298 12.77 19.5598 12.39 19.5598 12C19.5598 11.61 19.5298 11.23 19.4698 10.86L21.6598 8.73L19.6598 5.27L16.7398 6.1C16.1398 5.62 15.4698 5.23 14.7398 4.96L13.9998 2Z" fill="white"/>
</svg>
