<svg width="90" height="20" viewBox="0 0 90 20" fill="none" xmlns="http://www.w3.org/2000/svg">
<g clip-path="url(#clip0_349_89)">
<path d="M27.9727 3.12324C27.6435 1.89323 26.6768 0.926623 25.4468 0.597366C23.2197 1.78814e-07 14.285 0 14.285 0C14.285 0 5.35042 1.78814e-07 3.12323 0.597366C1.89323 0.926623 0.926623 1.89323 0.597366 3.12324C1.78814e-07 5.35042 0 10 0 10C0 10 1.78814e-07 14.6496 0.597366 16.8768C0.926623 18.1068 1.89323 19.0734 3.12323 19.4026C5.35042 20 14.285 20 14.285 20C14.285 20 23.2197 20 25.4468 19.4026C26.6768 19.0734 27.6435 18.1068 27.9727 16.8768C28.5701 14.6496 28.5701 10 28.5701 10C28.5701 10 28.5677 5.35042 27.9727 3.12324Z" fill="#FF0000"/>
<path d="M11.4258 14.2849L18.8482 9.99991L11.4258 5.71484V14.2849Z" fill="white"/>
<path d="M34.6024 13.0041L31.3945 1.41895H34.1932L35.3174 6.67059C35.6043 7.9641 35.8136 9.06711 35.95 9.97962H36.0323C36.1264 9.32581 36.3381 8.22986 36.665 6.68941L37.8291 1.41895H40.6278L37.3799 13.0041V18.5615H34.6001V13.0041H34.6024Z" fill="white"/>
<path d="M41.4701 18.1942C40.9057 17.8132 40.5035 17.2205 40.2636 16.4162C40.0261 15.6119 39.9062 14.5442 39.9062 13.2083V11.3903C39.9062 10.0427 40.0426 8.95854 40.3154 8.14245C40.5882 7.32637 41.0139 6.729 41.5924 6.35506C42.171 5.98112 42.9306 5.79297 43.8714 5.79297C44.798 5.79297 45.5388 5.98347 46.0985 6.36447C46.6559 6.74546 47.0651 7.34283 47.3238 8.15186C47.5825 8.96324 47.7119 10.0427 47.7119 11.3903V13.2083C47.7119 14.5442 47.585 15.6166 47.3334 16.4256C47.0817 17.237 46.6724 17.8297 46.1079 18.2036C45.5435 18.5776 44.7768 18.7657 43.8102 18.7657C42.813 18.768 42.0346 18.5752 41.4701 18.1942ZM44.6357 16.2328C44.7909 15.8236 44.8709 15.158 44.8709 14.2314V10.3297C44.8709 9.43126 44.7933 8.77274 44.6357 8.35882C44.4781 7.94255 44.203 7.73559 43.8078 7.73559C43.4269 7.73559 43.1565 7.94255 43.0013 8.35882C42.8437 8.7751 42.766 9.43126 42.766 10.3297V14.2314C42.766 15.158 42.8413 15.8259 42.9919 16.2328C43.1424 16.642 43.4127 16.8466 43.8078 16.8466C44.203 16.8466 44.4781 16.642 44.6357 16.2328Z" fill="white"/>
<path d="M56.8149 18.5644H54.6089L54.3643 17.031H54.3032C53.7034 18.1881 52.805 18.7666 51.6056 18.7666C50.7754 18.7666 50.1616 18.4938 49.7665 17.9506C49.3714 17.4049 49.1738 16.5536 49.1738 15.3965V6.03848H51.9937V15.2318C51.9937 15.7916 52.0548 16.189 52.1771 16.4266C52.2994 16.6641 52.504 16.784 52.7909 16.784C53.0355 16.784 53.2707 16.7088 53.4965 16.5583C53.7223 16.4077 53.8869 16.2172 53.9974 15.9868V6.03613H56.8149V18.5644Z" fill="white"/>
<path d="M64.4752 3.68807H61.6765V18.5634H58.9178V3.68807H56.1191V1.4209H64.4752V3.68807Z" fill="white"/>
<path d="M71.2759 18.5644H69.0699L68.8253 17.031H68.7642C68.1645 18.1881 67.2661 18.7666 66.0666 18.7666C65.2364 18.7666 64.6226 18.4938 64.2275 17.9506C63.8324 17.4049 63.6348 16.5536 63.6348 15.3965V6.03848H66.4547V15.2318C66.4547 15.7916 66.5158 16.189 66.6381 16.4266C66.7604 16.6641 66.965 16.784 67.252 16.784C67.4965 16.784 67.7317 16.7088 67.9575 16.5583C68.1833 16.4077 68.3479 16.2172 68.4584 15.9868V6.03613H71.2759V18.5644Z" fill="white"/>
<path d="M80.6083 8.03919C80.4366 7.24898 80.1614 6.67748 79.7805 6.32235C79.3995 5.96723 78.875 5.79084 78.2071 5.79084C77.6897 5.79084 77.2052 5.93665 76.756 6.23063C76.3068 6.52461 75.9587 6.90796 75.7141 7.38538H75.693V0.786133H72.9766V18.5613H75.3049L75.5918 17.376H75.653C75.8717 17.7993 76.1986 18.1309 76.6337 18.3779C77.0688 18.6225 77.5533 18.7448 78.0848 18.7448C79.0373 18.7448 79.7405 18.305 80.1897 17.4277C80.6389 16.5481 80.8646 15.177 80.8646 13.3097V11.3271C80.8646 9.92771 80.7776 8.82941 80.6083 8.03919ZM78.0236 13.1497C78.0236 14.0622 77.986 14.7772 77.9107 15.2946C77.8355 15.812 77.7108 16.1813 77.5321 16.3976C77.3557 16.6163 77.1158 16.7245 76.8171 16.7245C76.5843 16.7245 76.3703 16.6704 76.1727 16.5599C75.9752 16.4517 75.8153 16.2871 75.693 16.0707V8.96111C75.787 8.62009 75.9517 8.34258 76.1845 8.12386C76.415 7.90514 76.669 7.79695 76.9394 7.79695C77.2264 7.79695 77.4474 7.90984 77.6027 8.13327C77.7602 8.35904 77.8684 8.73534 77.9296 9.26685C77.9907 9.79836 78.0213 10.5533 78.0213 11.534V13.1497H78.0236Z" fill="white"/>
<path d="M84.8657 13.8717C84.8657 14.676 84.8892 15.2781 84.9363 15.6803C84.9833 16.0824 85.0821 16.3741 85.2326 16.5599C85.3831 16.7433 85.6136 16.835 85.9264 16.835C86.3474 16.835 86.639 16.6704 86.7942 16.3435C86.9518 16.0166 87.0365 15.471 87.0506 14.709L89.4824 14.8524C89.4965 14.9606 89.5035 15.1111 89.5035 15.3016C89.5035 16.4587 89.186 17.3242 88.5534 17.8957C87.9208 18.4672 87.0247 18.7541 85.8676 18.7541C84.4777 18.7541 83.504 18.319 82.9466 17.4465C82.3869 16.574 82.1094 15.2264 82.1094 13.4013V11.2141C82.1094 9.33501 82.3987 7.96154 82.9772 7.09607C83.5558 6.23059 84.5459 5.79785 85.9499 5.79785C86.9165 5.79785 87.6597 5.97424 88.1771 6.32937C88.6945 6.68449 89.059 7.23482 89.2707 7.98506C89.4824 8.73529 89.5882 9.7701 89.5882 11.0918V13.2367H84.8657V13.8717ZM85.2232 7.9686C85.0797 8.14498 84.9857 8.43426 84.9363 8.83642C84.8892 9.23859 84.8657 9.84771 84.8657 10.6662V11.5646H86.9283V10.6662C86.9283 9.86182 86.9001 9.2527 86.846 8.83642C86.7919 8.42015 86.6931 8.12852 86.5496 7.95684C86.4062 7.78751 86.1851 7.70049 85.8864 7.70049C85.5854 7.70284 85.3643 7.79221 85.2232 7.9686Z" fill="white"/>
</g>
<defs>
<clipPath id="clip0_349_89">
<rect width="90" height="20" fill="white"/>
</clipPath>
</defs>
</svg>
