<svg width="24" height="24" viewBox="0 0 24 24" fill="none" xmlns="http://www.w3.org/2000/svg">
<path d="M10.0004 14.6497V9.34975L15.0004 11.9997L10.0004 14.6497ZM17.7704 10.3197L16.5704 9.81975L18.0004 9.05975C19.8404 8.09975 20.5304 5.82975 19.5604 3.99975C18.5904 2.16975 16.3204 1.46975 14.4904 2.43975L6.00044 6.93975C4.71044 7.61975 3.93044 8.97975 4.00044 10.4297C4.07044 11.8497 4.93044 13.0997 6.22044 13.6797C6.25044 13.6897 7.42044 14.1797 7.42044 14.1797L6.00044 14.9297C4.17044 15.8997 3.47044 18.1697 4.44044 19.9997C5.41044 21.8297 7.68044 22.5297 9.51044 21.5597L18.0104 17.0597C19.3004 16.3797 20.0704 15.0197 20.0004 13.5697C19.9304 12.1497 19.0604 10.8897 17.7704 10.3197ZM17.5404 16.1797L9.04044 20.6797C7.70044 21.3897 6.03044 20.8797 5.32044 19.5397C4.61044 18.1997 5.12044 16.5297 6.46044 15.8197L8.50044 14.7397V13.5297L7.81044 13.2497L6.70044 12.7897C5.71044 12.3797 5.05044 11.4397 5.00044 10.3797C4.95044 9.31975 5.52044 8.31975 6.46044 7.81975L14.9604 3.31975C16.3004 2.60975 17.9704 3.11975 18.6804 4.45975C19.3904 5.79975 18.8804 7.46975 17.5404 8.17975L15.5004 9.25975V10.4697L17.3004 11.2097C18.2904 11.6197 18.9504 12.5597 19.0004 13.6197C19.0504 14.6797 18.4804 15.6797 17.5404 16.1797Z" fill="white"/>
</svg>
